# Blender 3.4.1
# www.blender.org
mtllib shelf.mtl
o Cube.001
v 7.034798 -9.720654 -20.114555
v 7.034798 3.024776 -20.114555
v 6.809450 -10.019124 -24.418266
v 6.809450 3.323247 -24.418266
v 16.657677 -9.720654 -20.114555
v 16.657677 3.024776 -20.114555
v 16.883024 -10.019124 -24.418266
v 16.883024 3.323247 -24.418266
v 6.809450 -10.019124 -20.114555
v 6.809450 3.323247 -20.114555
v 16.883024 3.323247 -20.114555
v 16.883024 -10.019124 -20.114555
v 7.034798 -9.720654 -24.122309
v 7.034798 3.024776 -24.122309
v 16.657677 3.024776 -24.122309
v 16.657677 -9.720654 -24.122309
v 7.034798 -7.219486 -20.114555
v 7.034798 -6.900136 -20.114555
v 7.034798 -3.529686 -20.114555
v 7.034798 -3.166191 -20.114555
v 7.034798 0.177235 -20.114555
v 7.034798 0.546003 -20.114555
v 16.657677 0.546003 -20.114555
v 16.657677 0.177235 -20.114555
v 16.657677 -3.166191 -20.114555
v 16.657677 -3.529686 -20.114555
v 16.657677 -6.900136 -20.114555
v 16.657677 -7.219486 -20.114555
v 7.034798 -7.219486 -24.122309
v 7.034798 -6.900136 -24.122309
v 7.034798 -3.529686 -24.122309
v 7.034798 -3.166191 -24.122309
v 7.034798 0.177235 -24.122309
v 7.034798 0.546003 -24.122309
v 16.657677 0.546003 -24.122309
v 16.657677 0.177235 -24.122309
v 16.657677 -3.166191 -24.122309
v 16.657677 -3.529686 -24.122309
v 16.657677 -6.900136 -24.122309
v 16.657677 -7.219486 -24.122309
vn -1.0000 -0.0000 -0.0000
vn -0.0000 -1.0000 -0.0000
vn -0.0000 1.0000 -0.0000
vn 1.0000 -0.0000 -0.0000
vn -0.0000 -0.0000 1.0000
vn -0.0000 -0.0000 -1.0000
vt 0.380593 0.994407
vt 0.619407 0.994407
vt 0.125000 0.500000
vt 0.375000 0.250000
vt 0.875000 0.500000
vt 0.625000 0.250000
vt 0.380593 0.755593
vt 0.619407 0.755593
vt 0.375000 0.500000
vt 0.625000 0.500000
vt 0.125000 0.750000
vt 0.375000 1.000000
vt 0.875000 0.750000
vt 0.625000 1.000000
vt 0.625000 0.000000
vt 0.625000 0.750000
vt 0.375000 0.750000
vt 0.380593 0.994407
vt 0.619407 0.994407
vt 0.619407 0.755593
vt 0.380593 0.755593
vt 0.414709 0.994407
vt 0.000000 0.000000
vt 0.448825 0.994407
vt 0.000000 0.000000
vt 0.482942 0.994408
vt 0.000000 0.000000
vt 0.517058 0.994408
vt 0.000000 0.000000
vt 0.551175 0.994407
vt 0.000000 0.000000
vt 0.585291 0.994407
vt 0.000000 0.000000
vt 0.585291 0.755593
vt 0.000000 0.000000
vt 0.551175 0.755593
vt 0.000000 0.000000
vt 0.517058 0.755593
vt 0.000000 0.000000
vt 0.482942 0.755593
vt 0.000000 0.000000
vt 0.448825 0.755593
vt 0.000000 0.000000
vt 0.414709 0.755593
vt 0.000000 0.000000
vt 0.414709 0.994407
vt 0.000000 0.000000
vt 0.448825 0.994407
vt 0.000000 0.000000
vt 0.482942 0.994407
vt 0.000000 0.000000
vt 0.517058 0.994407
vt 0.000000 0.000000
vt 0.551175 0.994407
vt 0.000000 0.000000
vt 0.585291 0.994407
vt 0.000000 0.000000
vt 0.585291 0.755593
vt 0.000000 0.000000
vt 0.551175 0.755593
vt 0.000000 0.000000
vt 0.517058 0.755593
vt 0.000000 0.000000
vt 0.482942 0.755593
vt 0.000000 0.000000
vt 0.448825 0.755593
vt 0.000000 0.000000
vt 0.414709 0.755593
vt 0.000000 0.000000
s 0
f 9/12/1 10/15/1 4/6/1 3/4/1
f 6/8/2 2/2/2 14/19/2 15/20/2
f 3/3/2 7/9/2 12/17/2 9/11/2
f 8/10/3 4/5/3 10/13/3 11/16/3
f 7/9/4 8/10/4 11/16/4 12/17/4
f 5/7/5 1/1/5 9/12/5 12/17/5
f 2/2/5 6/8/5 11/16/5 10/14/5
f 35/58/5 15/20/5 14/19/5 34/56/5
f 23/34/1 6/8/1 15/20/1 35/58/1
f 1/1/3 5/7/3 16/21/3 13/18/3
f 17/22/4 1/1/4 13/18/4 29/46/4
f 2/2/4 22/32/4 34/56/4 14/19/4
f 22/32/4 21/30/4 33/54/4 34/56/4
f 21/30/4 20/28/4 32/52/4 33/54/4
f 20/28/4 19/26/4 31/50/4 32/52/4
f 19/26/4 18/24/4 30/48/4 31/50/4
f 18/24/4 17/22/4 29/46/4 30/48/4
f 5/7/1 28/44/1 40/68/1 16/21/1
f 28/44/1 27/42/1 39/66/1 40/68/1
f 27/42/1 26/40/1 38/64/1 39/66/1
f 26/40/1 25/38/1 37/62/1 38/64/1
f 25/38/1 24/36/1 36/60/1 37/62/1
f 24/36/1 23/34/1 35/58/1 36/60/1
f 16/21/5 40/68/5 29/46/5 13/18/5
f 40/68/5 39/66/5 30/48/5 29/46/5
f 39/66/5 38/64/5 31/50/5 30/48/5
f 38/64/5 37/62/5 32/52/5 31/50/5
f 37/62/5 36/60/5 33/54/5 32/52/5
f 36/60/5 35/58/5 34/56/5 33/54/5
f 12/17/5 11/16/5 6/8/5 23/34/5 24/36/5 25/38/5 26/40/5 27/42/5 28/44/5 5/7/5
f 22/32/5 2/2/5 10/15/5 9/12/5 1/1/5 17/22/5 18/24/5 19/26/5 20/28/5 21/30/5
f 4/6/6 8/10/6 7/9/6 3/4/6
f 24/37/2 21/31/2 33/55/2 36/61/2
f 23/35/2 22/33/2 34/57/2 35/59/2
f 24/37/6 21/31/6 22/33/6 23/35/6
f 25/39/2 20/29/2 32/53/2 37/63/2
f 26/41/2 19/27/2 31/51/2 38/65/2
f 26/41/6 19/27/6 20/29/6 25/39/6
f 28/45/2 17/23/2 29/47/2 40/69/2
f 27/43/2 18/25/2 30/49/2 39/67/2
f 28/45/6 17/23/6 18/25/6 27/43/6
