# Blender 3.4.1
# www.blender.org
mtllib Sword (wall).mtl
o Cube.002
v -16.897682 1.463349 -3.508354
v -16.897682 1.583575 -3.508354
v -16.897682 1.463349 -3.628580
v -16.897682 1.583575 -3.628580
v -16.350227 1.463349 -3.508354
v -16.350227 1.583575 -3.508354
v -16.350227 1.463349 -3.628580
v -16.350227 1.583575 -3.628580
v -16.232004 1.583575 -3.628580
v -16.232004 1.463349 -3.628580
v -16.232004 1.463349 -3.508354
v -16.232004 1.583575 -3.508354
v -16.350227 1.820021 -3.628580
v -16.350227 1.820021 -3.508354
v -16.232004 1.820021 -3.628580
v -16.232004 1.820021 -3.508354
v -16.897682 1.522491 -4.476960
v -16.897682 1.642716 -4.476960
v -16.897682 1.522491 -4.597185
v -16.897682 1.642716 -4.597185
v -16.350227 1.522491 -4.476960
v -16.350227 1.642716 -4.476960
v -16.350227 1.522491 -4.597185
v -16.350227 1.642716 -4.597185
v -16.232004 1.642716 -4.597185
v -16.232004 1.522491 -4.597185
v -16.232004 1.522491 -4.476960
v -16.232004 1.642716 -4.476960
v -16.350227 1.879162 -4.597185
v -16.350227 1.879162 -4.476960
v -16.232004 1.879162 -4.597185
v -16.232004 1.879162 -4.476960
v -16.454144 4.074960 -3.825929
v -16.259989 4.064908 -4.066769
v -16.185677 4.254161 -4.068987
v -16.454144 4.257581 -3.777004
v -16.323198 1.984048 -4.377898
v -16.223085 2.079540 -4.043507
v -16.163496 1.941815 -4.041893
v -16.332329 1.820722 -4.618619
v -16.454144 1.638757 -4.475021
v -16.226843 1.853052 -4.040854
v -16.257975 1.745410 -4.039593
v -16.454144 1.638796 -4.463195
v -16.454144 1.648989 -3.601787
v -16.454144 1.510064 -2.868571
v -16.575960 1.834268 -3.462491
v -16.585091 1.991907 -3.706970
v -16.454144 1.925525 -3.359652
v -16.454144 2.198849 -3.785919
v -16.585091 1.984047 -4.377899
v -16.575960 1.820722 -4.618619
v -16.744789 1.941812 -4.041893
v -16.685200 2.079545 -4.043507
v -16.650312 1.745411 -4.039593
v -16.681446 1.853052 -4.040853
v -16.332329 1.834268 -3.462490
v -16.323198 1.991910 -3.706973
v -16.247097 4.485195 -4.071693
v -16.454144 4.487833 -3.846513
v -16.454144 4.069309 -4.307777
v -16.648298 4.064908 -4.066769
v -16.722612 4.254161 -4.068987
v -16.454144 4.250739 -4.360970
v -16.661190 4.485195 -4.071693
v -16.454144 4.482556 -4.296874
v -16.268562 2.186207 -4.044757
v -16.454144 1.648750 -3.613609
v -16.454145 1.482691 -5.204783
v -16.454144 2.192781 -4.303820
v -16.639725 2.186207 -4.044757
v -16.454144 1.909544 -4.723568
v -16.454144 -5.081828 -4.189420
v -16.425005 -5.223390 -3.957942
v -16.454144 -6.196752 -3.946534
v -16.483280 -5.223390 -3.957942
v -16.410231 -4.415042 -3.967413
v -16.454144 -4.368172 -3.656434
v -16.454144 -5.076442 -3.729839
v -16.379396 -3.127748 -3.982497
v -16.454144 -3.077112 -3.524360
v -16.342329 -1.032286 -4.007049
v -16.326424 0.763262 -4.028087
v -16.454144 0.640206 -3.600326
v -16.454144 -1.208233 -3.476468
v -16.310270 1.346065 -4.034914
v -16.454144 1.307035 -3.703559
v -16.454144 1.299282 -4.365263
v -16.598017 1.346065 -4.034914
v -16.454144 0.630217 -4.452843
v -16.581861 0.763262 -4.028087
v -16.454144 -1.220616 -4.533358
v -16.454144 -3.087883 -4.441688
v -16.528891 -3.127748 -3.982497
v -16.565958 -1.032286 -4.007049
v -16.454144 -4.375471 -4.279401
v -16.498056 -4.415042 -3.967413
v -16.640333 3.796902 -4.063627
v -16.454144 3.798243 -3.768069
v -16.267954 3.796903 -4.063627
v -16.267942 2.572922 -4.049287
v -16.454144 2.577879 -3.753790
v -16.454144 3.791317 -4.359136
v -16.454144 2.570954 -4.344818
v -16.640345 2.572922 -4.049287
vn -1.0000 -0.0000 -0.0000
vn -0.0000 -0.0000 -1.0000
vn -0.0000 -0.0000 1.0000
vn -0.0000 -1.0000 -0.0000
vn -0.0000 1.0000 -0.0000
vn 1.0000 -0.0000 -0.0000
vn 0.7325 -0.2270 0.6418
vn 0.8403 0.4165 -0.3470
vn 0.8953 -0.2992 -0.3301
vn -0.8629 -0.4966 -0.0941
vn -0.7088 0.5938 0.3807
vn -0.8403 0.4165 -0.3470
vn -0.8953 -0.2992 -0.3301
vn 0.8629 -0.4966 -0.0941
vn 0.7088 0.5938 0.3807
vn 0.7224 0.1998 0.6619
vn -0.7325 -0.2420 -0.6363
vn 0.7325 -0.2420 -0.6363
vn -0.7325 -0.2270 0.6418
vn -0.0000 0.9999 -0.0117
vn -0.7224 0.1843 -0.6664
vn 0.7224 0.1843 -0.6664
vn -0.7224 0.1998 0.6619
vn 0.7436 0.5230 0.4167
vn 0.8403 0.4245 0.3372
vn 0.7402 0.5241 0.4212
vn 0.8953 -0.2914 0.3370
vn 0.7917 -0.5980 0.1250
vn -0.7917 -0.6007 -0.1109
vn -0.8629 -0.4942 0.1057
vn -0.7402 0.5141 -0.4334
vn -0.7088 0.5847 -0.3945
vn -0.7435 0.5131 -0.4288
vn -0.7402 0.5241 0.4212
vn -0.8403 0.4245 0.3372
vn -0.7436 0.5230 0.4167
vn -0.7917 -0.5980 0.1250
vn -0.8953 -0.2914 0.3370
vn 0.8629 -0.4942 0.1057
vn 0.7917 -0.6007 -0.1109
vn 0.7436 0.5131 -0.4288
vn 0.7088 0.5847 -0.3945
vn 0.7402 0.5141 -0.4334
vn 0.9891 -0.0313 -0.1436
vn -0.9891 -0.0313 -0.1436
vn 0.9901 -0.0155 0.1398
vn 0.9878 -0.0188 0.1548
vn 0.9697 0.0055 0.2441
vn 0.9402 0.0178 0.3402
vn -0.9140 -0.1186 -0.3881
vn -0.9402 0.0098 -0.3405
vn -0.9828 -0.0146 -0.1839
vn -0.9878 -0.0225 -0.1543
vn -0.9901 -0.0155 0.1397
vn -0.9878 -0.0188 0.1548
vn -0.9697 0.0055 0.2441
vn -0.9402 0.0178 0.3402
vn 0.9140 -0.1186 -0.3881
vn 0.9402 0.0098 -0.3405
vn 0.9828 -0.0146 -0.1839
vn 0.9878 -0.0225 -0.1543
vn -0.9140 -0.1095 0.3908
vn 0.9140 -0.1095 0.3908
vn -0.9891 -0.0279 0.1443
vn 0.9891 -0.0279 0.1443
vn -0.9901 -0.0188 -0.1393
vn 0.9901 -0.0188 -0.1393
vn 0.9697 -0.0002 -0.2441
vn -0.9828 -0.0103 0.1842
vn -0.9697 -0.0002 -0.2442
vn 0.9828 -0.0103 0.1842
vn -0.8151 0.0527 0.5769
vn 0.8151 0.0527 0.5769
vn 0.8300 -0.0208 0.5573
vn -0.8461 -0.0062 -0.5330
vn -0.8300 -0.0208 0.5573
vn 0.8461 -0.0062 -0.5330
vn 0.8300 -0.0338 -0.5567
vn -0.8300 -0.0338 -0.5567
vn 0.8151 0.0391 -0.5779
vn -0.8151 0.0391 -0.5779
vn 0.8461 0.0062 0.5330
vn -0.8461 0.0062 0.5330
vt 0.375000 0.000000
vt 0.375000 1.000000
vt 0.125000 0.750000
vt 0.625000 0.000000
vt 0.625000 1.000000
vt 0.875000 0.750000
vt 0.375000 0.250000
vt 0.125000 0.500000
vt 0.625000 0.250000
vt 0.875000 0.500000
vt 0.375000 0.750000
vt 0.625000 0.750000
vt 0.375000 0.500000
vt 0.625000 0.500000
vt 0.625000 0.500000
vt 0.375000 0.500000
vt 0.375000 0.750000
vt 0.625000 0.750000
vt 0.625000 0.500000
vt 0.625000 0.750000
vt 0.625000 0.500000
vt 0.625000 0.750000
vt 0.375000 0.000000
vt 0.375000 1.000000
vt 0.125000 0.750000
vt 0.625000 0.000000
vt 0.625000 1.000000
vt 0.875000 0.750000
vt 0.375000 0.250000
vt 0.125000 0.500000
vt 0.625000 0.250000
vt 0.875000 0.500000
vt 0.375000 0.750000
vt 0.625000 0.750000
vt 0.375000 0.500000
vt 0.625000 0.500000
vt 0.625000 0.500000
vt 0.375000 0.500000
vt 0.375000 0.750000
vt 0.625000 0.750000
vt 0.625000 0.500000
vt 0.625000 0.750000
vt 0.625000 0.500000
vt 0.625000 0.750000
vt 0.000000 0.000000
vt 0.000000 0.000000
vt 0.000000 0.000000
vt 0.000000 0.000000
vt 0.000000 0.000000
vt 0.000000 0.000000
vt 0.000000 0.000000
vt 0.000000 0.000000
vt 0.000000 0.000000
vt 0.000000 0.000000
vt 0.000000 0.000000
vt 0.000000 0.000000
vt 0.000000 0.000000
vt 0.000000 0.000000
vt 0.000000 0.000000
vt 0.000000 0.000000
vt 0.000000 0.000000
vt 0.000000 0.000000
vt 0.000000 0.000000
vt 0.000000 0.000000
vt 0.000000 0.000000
vt 0.000000 0.000000
vt 0.000000 0.000000
vt 0.000000 0.000000
vt 0.000000 0.000000
vt 0.000000 0.000000
vt 0.000000 0.000000
vt 0.000000 0.000000
vt 0.000000 0.000000
vt 0.000000 0.000000
vt 0.000000 0.000000
vt 0.000000 0.000000
vt 0.000000 0.000000
vt 0.000000 0.000000
vt 0.000000 0.000000
vt 0.000000 0.000000
vt 0.000000 0.000000
vt 0.000000 0.000000
vt 0.000000 0.000000
vt 0.000000 0.000000
vt 0.000000 0.000000
vt 0.000000 0.000000
vt 0.000000 0.000000
vt 0.000000 0.000000
vt 0.000000 0.000000
vt 0.000000 0.000000
vt 0.000000 0.000000
vt 0.000000 0.000000
vt 0.000000 0.000000
vt 0.000000 0.000000
vt 0.000000 0.000000
vt 0.000000 0.000000
vt 0.000000 0.000000
vt 0.000000 0.000000
vt 0.000000 0.000000
vt 0.000000 0.000000
vt 0.000000 0.000000
vt 0.000000 0.000000
vt 0.000000 0.000000
vt 0.000000 0.000000
vt 0.000000 0.000000
vt 0.000000 0.000000
vt 0.000000 0.000000
vt 0.000000 0.000000
vt 0.000000 0.000000
vt 0.000000 0.000000
vt 0.000000 0.000000
vt 0.000000 0.000000
vt 0.000000 0.000000
vt 0.000000 0.000000
vt 0.000000 0.000000
vt 0.000000 0.000000
vt 0.000000 0.000000
s 0
usemtl Dark_Metal
f 1/1/1 2/4/1 4/9/1 3/7/1
f 3/7/2 4/9/2 8/14/2 7/13/2
f 8/14/1 6/12/1 14/20/1 13/19/1
f 5/11/3 6/12/3 2/5/3 1/2/3
f 3/8/4 7/13/4 5/11/4 1/3/4
f 8/14/5 4/10/5 2/6/5 6/12/5
f 10/16/6 9/15/6 12/18/6 11/17/6
f 7/13/2 8/14/2 9/15/2 10/16/2
f 6/12/3 5/11/3 11/17/3 12/18/3
f 5/11/4 7/13/4 10/16/4 11/17/4
f 13/19/5 14/20/5 16/22/5 15/21/5
f 9/15/2 8/14/2 13/19/2 15/21/2
f 6/12/3 12/18/3 16/22/3 14/20/3
f 12/18/6 9/15/6 15/21/6 16/22/6
f 17/23/1 18/26/1 20/31/1 19/29/1
f 19/29/2 20/31/2 24/36/2 23/35/2
f 24/36/1 22/34/1 30/42/1 29/41/1
f 21/33/3 22/34/3 18/27/3 17/24/3
f 19/30/4 23/35/4 21/33/4 17/25/4
f 24/36/5 20/32/5 18/28/5 22/34/5
f 26/38/6 25/37/6 28/40/6 27/39/6
f 23/35/2 24/36/2 25/37/2 26/38/2
f 22/34/3 21/33/3 27/39/3 28/40/3
f 21/33/4 23/35/4 26/38/4 27/39/4
f 29/41/5 30/42/5 32/44/5 31/43/5
f 25/37/2 24/36/2 29/41/2 31/43/2
f 22/34/3 28/40/3 32/44/3 30/42/3
f 28/40/6 25/37/6 31/43/6 32/44/6
f 33/45/7 34/46/7 35/47/7 36/48/7
f 37/49/8 38/50/8 39/51/8 40/52/8
f 41/53/9 42/54/9 43/55/9 44/56/9
f 45/57/10 46/58/10 47/59/10
f 48/60/11 49/61/11 50/62/11
f 51/63/12 52/64/12 53/65/12 54/66/12
f 41/53/13 44/56/13 55/67/13 56/68/13
f 45/57/14 57/69/14 46/58/14
f 58/70/15 50/62/15 49/61/15
f 36/48/16 35/47/16 59/71/16 60/72/16
f 61/73/17 62/74/17 63/75/17 64/76/17
f 34/46/18 61/73/18 64/76/18 35/47/18
f 62/74/19 33/45/19 36/48/19 63/75/19
f 65/77/20 60/72/20 59/71/20 66/78/20
f 64/76/21 63/75/21 65/77/21 66/78/21
f 35/47/22 64/76/22 66/78/22 59/71/22
f 63/75/23 36/48/23 60/72/23 65/77/23
f 57/69/24 58/70/24 49/61/24 46/58/24
f 39/51/25 38/50/25 58/70/25 57/69/25
f 38/50/26 67/79/26 50/62/26 58/70/26
f 43/55/27 42/54/27 45/57/27 68/80/27
f 42/54/28 39/51/28 57/69/28 45/57/28
f 52/64/29 41/53/29 56/68/29 53/65/29
f 69/81/30 41/53/30 52/64/30
f 70/82/31 51/63/31 54/66/31 71/83/31
f 70/82/32 72/84/32 51/63/32
f 72/84/33 69/81/33 52/64/33 51/63/33
f 54/66/34 48/60/34 50/62/34 71/83/34
f 53/65/35 47/59/35 48/60/35 54/66/35
f 47/59/36 46/58/36 49/61/36 48/60/36
f 56/68/37 45/57/37 47/59/37 53/65/37
f 55/67/38 68/80/38 45/57/38 56/68/38
f 69/81/39 40/52/39 41/53/39
f 40/52/40 39/51/40 42/54/40 41/53/40
f 72/84/41 37/49/41 40/52/41 69/81/41
f 70/82/42 37/49/42 72/84/42
f 70/82/43 67/79/43 38/50/43 37/49/43
usemtl Metal
f 73/85/44 74/86/44 75/87/44
f 73/85/45 75/87/45 76/88/45
f 74/86/46 77/89/46 78/90/46 79/91/46
f 77/89/47 80/92/47 81/93/47 78/90/47
f 82/94/48 83/95/48 84/96/48 85/97/48
f 83/95/49 86/98/49 87/99/49 84/96/49
f 44/56/50 88/100/50 89/101/50 55/67/50
f 88/100/51 90/102/51 91/103/51 89/101/51
f 92/104/52 93/105/52 94/106/52 95/107/52
f 93/105/53 96/108/53 97/109/53 94/106/53
f 76/88/54 79/91/54 78/90/54 97/109/54
f 97/109/55 78/90/55 81/93/55 94/106/55
f 95/107/56 85/97/56 84/96/56 91/103/56
f 91/103/57 84/96/57 87/99/57 89/101/57
f 44/56/58 43/55/58 86/98/58 88/100/58
f 88/100/59 86/98/59 83/95/59 90/102/59
f 92/104/60 82/94/60 80/92/60 93/105/60
f 93/105/61 80/92/61 77/89/61 96/108/61
f 89/101/62 87/99/62 68/80/62 55/67/62
f 86/98/63 43/55/63 68/80/63 87/99/63
f 75/87/64 79/91/64 76/88/64
f 75/87/65 74/86/65 79/91/65
f 96/108/66 73/85/66 76/88/66 97/109/66
f 96/108/67 77/89/67 74/86/67 73/85/67
f 90/102/68 83/95/68 82/94/68 92/104/68
f 94/106/69 81/93/69 85/97/69 95/107/69
f 90/102/70 92/104/70 95/107/70 91/103/70
f 80/92/71 82/94/71 85/97/71 81/93/71
usemtl Wood
f 98/110/72 99/111/72 33/45/72 62/74/72
f 100/112/73 34/46/73 33/45/73 99/111/73
f 67/79/74 101/113/74 102/114/74 50/62/74
f 103/115/75 104/116/75 105/117/75 98/110/75
f 71/83/76 50/62/76 102/114/76 105/117/76
f 103/115/77 100/112/77 101/113/77 104/116/77
f 104/116/78 101/113/78 67/79/78 70/82/78
f 104/116/79 70/82/79 71/83/79 105/117/79
f 61/73/80 34/46/80 100/112/80 103/115/80
f 61/73/81 103/115/81 98/110/81 62/74/81
f 101/113/82 100/112/82 99/111/82 102/114/82
f 105/117/83 102/114/83 99/111/83 98/110/83
